<svg width="21" height="20" viewBox="0 0 21 20" fill="none" xmlns="http://www.w3.org/2000/svg">
    <path fill-rule="evenodd" clip-rule="evenodd" d="M10.3551 1.66666C7.55363 1.66666 5.28261 3.93768 5.28261 6.73913V8.48289C5.28261 9.39985 4.6917 10.2018 4.22204 10.9894C3.97515 11.4033 3.83331 11.8872 3.83331 12.4043C3.83331 13.74 4.78765 14.8861 6.11074 15.0695C7.42465 15.2517 9.06643 15.435 10.3551 15.435C11.6437 15.435 13.2855 15.2517 14.5994 15.0695C15.9225 14.8861 16.8768 13.74 16.8768 12.4043C16.8768 11.8873 16.735 11.4034 16.4881 10.9894C16.0184 10.2018 15.4275 9.39987 15.4275 8.48293V6.73913C15.4275 3.93768 13.1565 1.66666 10.3551 1.66666Z" fill="#334A34"/>
    <path d="M3.83331 12.4043H3.20831H3.83331ZM6.11074 15.0695L6.0249 15.6886H6.0249L6.11074 15.0695ZM14.5994 15.0695L14.5135 14.4505L14.5994 15.0695ZM16.4881 10.9894L15.9513 11.3095L16.4881 10.9894ZM5.90761 6.73913C5.90761 4.28286 7.89881 2.29166 10.3551 2.29166V1.04166C7.20845 1.04166 4.65761 3.5925 4.65761 6.73913H5.90761ZM5.90761 8.48289V6.73913H4.65761V8.48289H5.90761ZM4.45831 12.4043C4.45831 12.003 4.56807 11.6294 4.75883 11.3095L3.68525 10.6692C3.38223 11.1773 3.20831 11.7715 3.20831 12.4043H4.45831ZM6.19658 14.4505C5.19689 14.3118 4.45831 13.4427 4.45831 12.4043H3.20831C3.20831 14.0373 4.37841 15.4603 6.0249 15.6886L6.19658 14.4505ZM10.3551 14.81C9.11174 14.81 7.50542 14.6319 6.19658 14.4505L6.0249 15.6886C7.34388 15.8715 9.02113 16.06 10.3551 16.06V14.81ZM14.5135 14.4505C13.2047 14.6319 11.5984 14.81 10.3551 14.81V16.06C11.689 16.06 13.3662 15.8715 14.6852 15.6886L14.5135 14.4505ZM16.2518 12.4043C16.2518 13.4427 15.5132 14.3118 14.5135 14.4505L14.6852 15.6886C16.3317 15.4603 17.5018 14.0373 17.5018 12.4043H16.2518ZM15.9513 11.3095C16.1421 11.6294 16.2518 12.0031 16.2518 12.4043H17.5018C17.5018 11.7715 17.3279 11.1773 17.0249 10.6692L15.9513 11.3095ZM14.8025 6.73913V8.48293H16.0525V6.73913H14.8025ZM10.3551 2.29166C12.8113 2.29166 14.8025 4.28286 14.8025 6.73913H16.0525C16.0525 3.5925 13.5017 1.04166 10.3551 1.04166V2.29166ZM17.0249 10.6692C16.7675 10.2376 16.5337 9.89176 16.3409 9.50554C16.1563 9.13575 16.0525 8.80584 16.0525 8.48293H14.8025C14.8025 9.07697 14.9942 9.60651 15.2225 10.0638C15.4426 10.5047 15.7391 10.9536 15.9513 11.3095L17.0249 10.6692ZM4.65761 8.48289C4.65761 8.8058 4.55384 9.13571 4.36924 9.50552C4.17645 9.89173 3.94266 10.2376 3.68525 10.6692L4.75883 11.3095C4.97108 10.9536 5.26757 10.5047 5.48765 10.0638C5.71592 9.60649 5.90761 9.07694 5.90761 8.48289H4.65761Z" fill="#334A34"/>
    <path d="M12.1667 17.3617C11.7772 17.9474 11.1112 18.3335 10.3551 18.3335C9.59895 18.3335 8.93297 17.9474 8.5435 17.3617" stroke="#334A34" stroke-width="1.25" stroke-linecap="round"/>
</svg>
